#!OML:ASF F:\VICON\USERDATA\INSTALL\Justin_Nancy\Justin_Nancy.ASF
:FULLY-SPECIFIED
:DEGREES
96
root 0.326283 17.5053 -14.1464 1.32219 -5.44685 -5.12339
lowerback 7.58713 0.916201 3.52619
upperback 0.945912 1.63424 3.61577
thorax -3.28488 0.785269 1.59429
lowerneck -15.8446 -3.15799 -8.87874
upperneck 20.1338 -3.29355 5.20376
head 9.18381 -1.66118 2.85036
rclavicle -2.07233e-014 -1.90833e-014
rhumerus -23.9883 -6.45488 -79.8784
rradius 35.2075
rwrist 2.01463
rhand -14.2123 9.70164
rfingers 7.12502
rthumb 11.9244 -19.9388
lclavicle -2.07233e-014 -1.90833e-014
lhumerus -34.3984 9.48749 85.4454
lradius 27.5116
lwrist -10.7713
lhand -13.7426 27.6185
lfingers 7.12502
lthumb 12.3773 417.232
rfemur -0.317083 3.21324 31.096
rtibia 17.4843
rfoot -13.6614 -3.84538
rtoes 2.29062
lfemur -30.9833 0.44258 -14.1811
ltibia 44.7741
lfoot -7.86223 7.48568
ltoes -0.543527
97
root 0.326651 17.5077 -13.9981 1.4664 -5.53292 -5.33539
lowerback 7.56556 0.930027 3.76788
upperback 0.854101 1.67802 3.67099
thorax -3.36317 0.802758 1.51181
lowerneck -15.9166 -3.08805 -8.95757
upperneck 20.2345 -3.17897 5.23524
head 9.22491 -1.61059 2.89022
rclavicle -1.69464e-014 -1.66979e-014
rhumerus -23.7555 -5.96722 -79.8959
rradius 35.3606
rwrist 2.06001
rhand -14.25 8.46669
rfingers 7.12502
rthumb 11.8881 -21.1758
lclavicle -1.69464e-014 -1.66979e-014
lhumerus -34.8283 9.50785 85.4644
lradius 27.3504
lwrist -10.2403
lhand -14.4078 27.0613
lfingers 7.12502
lthumb 11.7359 416.713
rfemur 0.378431 3.28806 31.3217
rtibia 16.9232
rfoot -13.6902 -3.93939
rtoes 1.94701
lfemur -31.2071 0.0569686 -13.7999
ltibia 42.6421
lfoot -8.04808 7.76213
ltoes -1.50326
98
root 0.323762 17.504 -13.8515 1.71759 -5.49963 -5.36561
lowerback 7.42003 0.948835 3.7219
upperback 0.808186 1.69486 3.73468
thorax -3.33276 0.812378 1.60404
lowerneck -16.2461 -3.14174 -8.94778
upperneck 20.3223 -3.18681 5.06212
head 9.31453 -1.62897 2.82634
rclavicle 1.39149e-014 -1.27222e-014
rhumerus -23.3635 -5.58405 -79.8403
rradius 35.5653
rwrist 1.8627
rhand -13.9805 7.63696
rfingers 7.12502
rthumb 12.1479 -21.9903
lclavicle 1.39149e-014 -1.27222e-014
lhumerus -34.8296 9.91193 85.4081
lradius 27.0547
lwrist -10.5303
lhand -13.9643 27.8197
lfingers 7.12502
lthumb 12.1636 417.446
rfemur 0.9924 3.37588 31.3516
rtibia 16.2655
rfoot -13.7069 -4.00003
rtoes 2.42402
lfemur -31.476 -0.282559 -13.6386
ltibia 40.4256
lfoot -8.14932 7.81101
ltoes -3.57012
99
root 0.321002 17.4927 -13.709 1.91012 -5.54719 -5.32482
lowerback 7.29801 0.964632 3.59895
upperback 0.746761 1.70323 3.77706
thorax -3.33314 0.818347 1.71763
lowerneck -16.1801 -3.15998 -8.99653
upperneck 20.2694 -3.16484 4.89418
head 9.28135 -1.64102 2.77822
rclavicle 2.27111e-014 1.43125e-014
rhumerus -23.1108 -5.14301 -79.8369
rradius 35.9613
rwrist 1.44582
rhand -13.9434 8.49717
rfingers 7.12502
rthumb 12.1836 -21.128
lclavicle 2.27111e-014 1.43125e-014
lhumerus -35.0222 10.5944 85.1849
lradius 26.7682
lwrist -11.1844
lhand -13.7926 27.6355
lfingers 7.12502
lthumb 12.329 417.252
rfemur 1.63708 3.47003 31.3036
rtibia 15.6533
rfoot -13.6993 -4.02563
rtoes 2.57705
lfemur -31.6804 -0.585609 -13.5372
ltibia 38.1645
lfoot -7.98659 7.73288
ltoes -4.96563
100
root 0.316031 17.4847 -13.5642 2.02817 -5.68311 -5.32562
lowerback 7.17305 1.05459 3.58496
upperback 0.687595 1.81591 3.73688
thorax -3.32416 0.874204 1.67427
lowerneck -15.8346 -3.12796 -9.03587
upperneck 20.1768 -3.16934 5.01698
head 9.18823 -1.63599 2.82794
rclavicle 2.62893e-014 8.26944e-014
rhumerus -22.9506 -4.94061 -79.887
rradius 36.1558
rwrist 1.18303
rhand -14.7127 9.96159
rfingers 7.12502
rthumb 11.4418 -19.7062
lclavicle 2.62893e-014 8.26944e-014
lhumerus -35.3287 10.8277 84.9985
lradius 26.6324
lwrist -11.3869
lhand -13.6661 27.3131
lfingers 7.12502
lthumb 12.4511 416.922
rfemur 2.36941 3.79443 31.3287
rtibia 15.1198
rfoot -13.7049 -4.2035
rtoes 2.93699
lfemur -31.7361 -0.959382 -13.3205
ltibia 35.9125
lfoot -8.03182 7.88755
ltoes -6.82415
101
root 0.313675 17.4804 -13.4198 2.11611 -5.44196 -5.15011
lowerback 6.93272 1.02735 3.48246
upperback 0.753566 1.75008 3.63575
thorax -3.12051 0.844863 1.63762
lowerneck -15.8947 -3.13496 -8.97575
upperneck 20.1514 -3.19824 5.06137
head 9.192 -1.63884 2.82908
rclavicle -1.50082e-014 -1.03368e-014
rhumerus -22.5015 -5.0688 -79.9516
rradius 36.1744
rwrist 1.29894
rhand -15.2401 10.61
rfingers 7.12502
rthumb 10.9332 -19.0854
lclavicle -1.50082e-014 -1.03368e-014
lhumerus -35.2962 10.8111 84.9585
lradius 26.445
lwrist -11.3489
lhand -13.8179 27.4475
lfingers 7.12502
lthumb 12.3047 417.065
rfemur 3.0676 3.73788 31.1902
rtibia 14.5966
rfoot -13.7155 -4.57502
rtoes 2.9966
lfemur -31.8637 -1.50189 -13.3674
ltibia 33.7238
lfoot -8.18915 7.98286
ltoes -8.34779
102
root 0.316318 17.4693 -13.2715 2.23794 -5.18753 -5.19141
lowerback 6.67452 0.965497 3.65096
upperback 0.80731 1.65976 3.58255
thorax -2.91346 0.800141 1.50131
lowerneck -15.9697 -3.17047 -8.80234
upperneck 20.0625 -3.24597 4.90073
head 9.17301 -1.66302 2.73661
rclavicle -1.75924e-014 -1.43125e-014
rhumerus -22.089 -5.06298 -80.0462
rradius 36.4459
rwrist 1.08362
rhand -15.0041 10.3175
rfingers 7.12502
rthumb 11.1608 -19.3656
lclavicle -1.75924e-014 -1.43125e-014
lhumerus -35.3251 10.7622 84.921
lradius 26.243
lwrist -11.3388
lhand -13.6008 27.6537
lfingers 7.12502
lthumb 12.514 417.259
rfemur 3.75871 3.43403 31.271
rtibia 14.0085
rfoot -13.7339 -4.94958
rtoes 1.36269
lfemur -31.9705 -2.03814 -13.1691
ltibia 31.6694
lfoot -8.47482 8.20504
ltoes -9.07382
103
root 0.317633 17.451 -13.1198 2.36894 -5.26008 -5.14943
lowerback 6.55253 0.967058 3.60014
upperback 0.765788 1.65332 3.59831
thorax -2.89007 0.797729 1.54838
lowerneck -16.031 -3.14057 -8.85981
upperneck 20.0928 -3.16362 4.81133
head 9.1886 -1.63828 2.72564
rclavicle -1.60519e-014 -1.74931e-014
rhumerus -21.6946 -4.75995 -80.0405
rradius 36.5536
rwrist 0.780179
rhand -14.6635 10.2081
rfingers 7.12502
rthumb 11.4893 -19.457
lclavicle -1.60519e-014 -1.74931e-014
lhumerus -35.5356 11.0205 84.8978
lradius 25.9875
lwrist -11.1607
lhand -13.8926 27.904
lfingers 7.12502
lthumb 12.2327 417.526
rfemur 4.48924 3.36251 31.2189
rtibia 13.4207
rfoot -13.7596 -5.06694
rtoes 0.741646
lfemur -31.9979 -2.36939 -13.0477
ltibia 29.7281
lfoot -8.76742 8.58152
ltoes -10.0532
104
root 0.319635 17.4394 -12.9648 2.57939 -5.46678 -5.15909
lowerback 6.30242 1.04572 3.57353
upperback 0.807166 1.73943 3.63522
thorax -2.70932 0.843198 1.59871
lowerneck -16.4407 -3.12766 -8.96996
upperneck 20.2131 -3.08597 4.83672
head 9.30238 -1.6042 2.76197
rclavicle 9.24349e-015 1.82882e-014
rhumerus -21.2203 -4.72544 -79.9962
rradius 36.5881
rwrist 0.863403
rhand -14.4985 10.4885
rfingers 7.12502
rthumb 11.6484 -19.1677
lclavicle 9.24349e-015 1.82882e-014
lhumerus -35.5876 11.2889 84.9372
lradius 25.7693
lwrist -10.957
lhand -14.3196 27.5074
lfingers 7.12502
lthumb 11.8209 417.154
rfemur 5.2493 3.48694 31.187
rtibia 12.7279
rfoot -13.7666 -5.07546
rtoes 1.48106
lfemur -32.1473 -2.95726 -12.7179
ltibia 27.9784
lfoot -9.29448 9.32741
ltoes -10.1197
105
root 0.323196 17.4304 -12.8105 2.672 -5.53614 -5.08227
lowerback 6.22566 1.11296 3.57254
upperback 0.794266 1.82226 3.54575
thorax -2.67692 0.884359 1.50102
lowerneck -16.6884 -3.13938 -8.84727
upperneck 20.3405 -3.09867 4.76917
head 9.38997 -1.60659 2.71648
rclavicle 8.64713e-015 1.59028e-014
rhumerus -21.0584 -4.98355 -80.049
rradius 36.7632
rwrist 1.01946
rhand -14.573 10.7471
rfingers 7.12502
rthumb 11.5766 -18.9132
lclavicle 8.64713e-015 1.59028e-014
lhumerus -35.754 11.4999 84.741
lradius 25.4351
lwrist -11.2075
lhand -14.4696 27.0245
lfingers 7.12502
lthumb 11.6763 416.679
rfemur 6.14507 3.49899 31.058
rtibia 12.0328
rfoot -13.9068 -5.00231
rtoes 3.07671
lfemur -32.2734 -3.57403 -12.5181
ltibia 26.4177
lfoot -9.9609 10.1281
ltoes -9.21868
106
root 0.324333 17.4199 -12.6561 2.73164 -5.51348 -5.16024
lowerback 6.29717 1.09313 3.67526
upperback 0.59274 1.81752 3.52384
thorax -2.92164 0.877037 1.41823
lowerneck -16.2706 -3.12939 -8.8052
upperneck 20.2541 -3.12829 4.74541
head 9.28399 -1.62385 2.69865
rclavicle -8.64713e-015 2.06736e-014
rhumerus -21.3042 -4.92195 -80.1153
rradius 37.0278
rwrist 1.03349
rhand -14.5428 10.9483
rfingers 7.12502
rthumb 11.6057 -18.7104
lclavicle -8.64713e-015 2.06736e-014
lhumerus -36.2386 11.8563 84.379
lradius 25.1127
lwrist -11.6747
lhand -14.1329 27.5589
lfingers 7.12502
lthumb 12.0009 417.195
rfemur 7.02512 3.51215 31.141
rtibia 11.4013
rfoot -14.0599 -5.09633
rtoes 4.41566
lfemur -32.412 -4.1037 -12.1884
ltibia 25.0419
lfoot -10.2602 10.8048
ltoes -7.91772
107
root 0.326948 17.4057 -12.5071 2.87188 -5.52102 -5.36557
lowerback 6.25068 1.13647 3.8974
upperback 0.487631 1.89329 3.52284
thorax -2.99724 0.910365 1.28669
lowerneck -16.1069 -3.10493 -8.71183
upperneck 20.199 -3.14332 4.79027
head 9.23436 -1.62005 2.69724
rclavicle 3.44394e-014 1.98785e-014
rhumerus -21.3122 -5.00375 -80.129
rradius 37.2166
rwrist 0.936182
rhand -14.5509 11.1998
rfingers 7.12502
rthumb 11.5979 -18.4592
lclavicle 3.44394e-014 1.98785e-014
lhumerus -36.4877 11.9457 84.2323
lradius 25.0033
lwrist -12.0173
lhand -13.6747 28.2851
lfingers 7.12502
lthumb 12.4427 417.895
rfemur 7.74352 3.47128 31.3931
rtibia 10.7869
rfoot -13.9555 -5.36564
rtoes 3.84781
lfemur -32.6497 -4.86096 -11.5972
ltibia 23.8643
lfoot -10.6142 11.7073
ltoes -7.46573
108
root 0.334273 17.3902 -12.3575 3.09209 -5.57974 -5.31531
lowerback 5.99587 1.2096 3.84395
upperback 0.509419 1.96856 3.49547
thorax -2.8322 0.950662 1.28748
lowerneck -16.2708 -3.09802 -8.644
upperneck 20.1878 -3.13489 4.7862
head 9.25849 -1.60904 2.68461
rclavicle 8.54774e-015 1.59028e-014
rhumerus -20.9899 -5.03296 -80.1307
rradius 37.3522
rwrist 0.705977
rhand -14.7773 10.9416
rfingers 7.12502
rthumb 11.3795 -18.7297
lclavicle 8.54774e-015 1.59028e-014
lhumerus -36.3079 11.9923 84.251
lradius 24.6001
lwrist -12.0368
lhand -13.5894 28.11
lfingers 7.12502
lthumb 12.525 417.715
rfemur 8.36348 3.2636 31.3275
rtibia 10.0957
rfoot -13.5913 -5.70173
rtoes 0.553703
lfemur -33.0299 -5.53595 -11.327
ltibia 22.937
lfoot -11.2763 12.8131
ltoes -7.62357
109
root 0.346613 17.3822 -12.1989 3.33646 -5.44536 -5.27235
lowerback 5.56316 1.16584 3.91598
upperback 0.566789 1.88308 3.47089
thorax -2.5275 0.911491 1.23855
lowerneck -16.5265 -3.14273 -8.68904
upperneck 20.2198 -3.16309 4.79036
head 9.31986 -1.62238 2.68866
rclavicle -3.13086e-015 -3.97569e-015
rhumerus -20.5532 -5.14795 -80.1388
rradius 37.337
rwrist 0.787951
rhand -14.6141 10.7517
rfingers 7.12502
rthumb 11.5369 -18.9108
lclavicle -3.13086e-015 -3.97569e-015
lhumerus -36.0922 12.1878 84.2078
lradius 24.012
lwrist -12.2159
lhand -13.7865 27.3489
lfingers 7.12502
lthumb 12.3349 416.965
rfemur 8.96195 3.26931 31.2572
rtibia 9.4709
rfoot -13.273 -6.0596
rtoes -1.38437
lfemur -33.3771 -6.34913 -11.0687
ltibia 22.2568
lfoot -12.0011 13.6562
ltoes -7.45608
